<svg width="34" height="34" viewBox="0 0 28 28" fill="none" xmlns="http://www.w3.org/2000/svg">
<circle cx="14" cy="14" r="14" fill="#4F372D"/>
<g clip-path="url(#clip0_24_30)">
<path d="M16.5926 14C16.5926 13.2843 16.3394 12.6733 15.8331 12.167C15.3267 11.6606 14.7157 11.4074 14 11.4074C13.2843 11.4074 12.6733 11.6606 12.167 12.167C11.6606 12.6733 11.4074 13.2843 11.4074 14C11.4074 14.7157 11.6606 15.3267 12.167 15.8331C12.6733 16.3394 13.2843 16.5926 14 16.5926C14.7157 16.5926 15.3267 16.3394 15.8331 15.8331C16.3394 15.3267 16.5926 14.7157 16.5926 14ZM17.9902 14C17.9902 15.1073 17.602 16.0491 16.8255 16.8255C16.0491 17.602 15.1073 17.9902 14 17.9902C12.8928 17.9902 11.9509 17.602 11.1745 16.8255C10.3981 16.0491 10.0098 15.1073 10.0098 14C10.0098 12.8928 10.3981 11.9509 11.1745 11.1745C11.9509 10.3981 12.8928 10.0098 14 10.0098C15.1073 10.0098 16.0491 10.3981 16.8255 11.1745C17.602 11.9509 17.9902 12.8928 17.9902 14ZM19.0839 9.84781C19.0839 10.1044 18.9928 10.3238 18.8105 10.5061C18.6282 10.6884 18.4088 10.7795 18.1522 10.7795C17.8956 10.7795 17.6762 10.6884 17.4939 10.5061C17.3116 10.3238 17.2205 10.1044 17.2205 9.84781C17.2205 9.59125 17.3116 9.37182 17.4939 9.18953C17.6762 9.00724 17.8956 8.91609 18.1522 8.91609C18.4088 8.91609 18.6282 9.00724 18.8105 9.18953C18.9928 9.37182 19.0839 9.59125 19.0839 9.84781ZM14 7.6198C13.9527 7.6198 13.6945 7.61811 13.2253 7.61473C12.756 7.61136 12.3999 7.61136 12.1568 7.61473C11.9138 7.61811 11.588 7.62824 11.1795 7.64512C10.7711 7.662 10.4234 7.69575 10.1364 7.74639C9.8495 7.79703 9.60813 7.85948 9.41233 7.93375C9.07476 8.06878 8.77769 8.26457 8.52113 8.52113C8.26457 8.77769 8.06878 9.07476 7.93375 9.41233C7.85948 9.60813 7.79703 9.8495 7.74639 10.1364C7.69575 10.4234 7.662 10.7711 7.64512 11.1795C7.62824 11.588 7.61811 11.9138 7.61473 12.1568C7.61136 12.3999 7.61136 12.756 7.61473 13.2253C7.61811 13.6945 7.6198 13.9527 7.6198 14C7.6198 14.0473 7.61811 14.3055 7.61473 14.7747C7.61136 15.244 7.61136 15.6001 7.61473 15.8432C7.61811 16.0862 7.62824 16.412 7.64512 16.8205C7.662 17.2289 7.69575 17.5766 7.74639 17.8636C7.79703 18.1505 7.85948 18.3919 7.93375 18.5877C8.06878 18.9253 8.26457 19.2223 8.52113 19.4789C8.77769 19.7354 9.07476 19.9312 9.41233 20.0663C9.60813 20.1405 9.8495 20.203 10.1364 20.2536C10.4234 20.3043 10.7711 20.338 11.1795 20.3549C11.588 20.3718 11.9138 20.3819 12.1568 20.3853C12.3999 20.3887 12.756 20.3887 13.2253 20.3853C13.6945 20.3819 13.9527 20.3802 14 20.3802C14.0473 20.3802 14.3055 20.3819 14.7747 20.3853C15.244 20.3887 15.6001 20.3887 15.8432 20.3853C16.0862 20.3819 16.412 20.3718 16.8205 20.3549C17.2289 20.338 17.5766 20.3043 17.8636 20.2536C18.1505 20.203 18.3919 20.1405 18.5877 20.0663C18.9253 19.9312 19.2223 19.7354 19.4789 19.4789C19.7354 19.2223 19.9312 18.9253 20.0663 18.5877C20.1405 18.3919 20.203 18.1505 20.2536 17.8636C20.3043 17.5766 20.338 17.2289 20.3549 16.8205C20.3718 16.412 20.3819 16.0862 20.3853 15.8432C20.3887 15.6001 20.3887 15.244 20.3853 14.7747C20.3819 14.3055 20.3802 14.0473 20.3802 14C20.3802 13.9527 20.3819 13.6945 20.3853 13.2253C20.3887 12.756 20.3887 12.3999 20.3853 12.1568C20.3819 11.9138 20.3718 11.588 20.3549 11.1795C20.338 10.7711 20.3043 10.4234 20.2536 10.1364C20.203 9.8495 20.1405 9.60813 20.0663 9.41233C19.9312 9.07476 19.7354 8.77769 19.4789 8.52113C19.2223 8.26457 18.9253 8.06878 18.5877 7.93375C18.3919 7.85948 18.1505 7.79703 17.8636 7.74639C17.5766 7.69575 17.2289 7.662 16.8205 7.64512C16.412 7.62824 16.0862 7.61811 15.8432 7.61473C15.6001 7.61136 15.244 7.61136 14.7747 7.61473C14.3055 7.61811 14.0473 7.6198 14 7.6198ZM21.7778 14C21.7778 15.5461 21.7609 16.6162 21.7271 17.2104C21.6596 18.6147 21.241 19.7017 20.4714 20.4714C19.7017 21.241 18.6147 21.6596 17.2104 21.7271C16.6162 21.7609 15.5461 21.7778 14 21.7778C12.4539 21.7778 11.3838 21.7609 10.7896 21.7271C9.38533 21.6596 8.29833 21.241 7.52865 20.4714C6.75898 19.7017 6.34038 18.6147 6.27287 17.2104C6.23911 16.6162 6.22223 15.5461 6.22223 14C6.22223 12.4539 6.23911 11.3838 6.27287 10.7896C6.34038 9.38533 6.75898 8.29833 7.52865 7.52865C8.29833 6.75898 9.38533 6.34038 10.7896 6.27287C11.3838 6.23911 12.4539 6.22223 14 6.22223C15.5461 6.22223 16.6162 6.23911 17.2104 6.27287C18.6147 6.34038 19.7017 6.75898 20.4714 7.52865C21.241 8.29833 21.6596 9.38533 21.7271 10.7896C21.7609 11.3838 21.7778 12.4539 21.7778 14Z" fill="#FDFDFD"/>
</g>
<defs>
<clipPath id="clip0_24_30">
<rect width="15.5556" height="15.5556" fill="white" transform="translate(6.22223 6.22223)"/>
</clipPath>
</defs>
</svg>
